<svg xmlns="http://www.w3.org/2000/svg" width="146" height="24" fill="none">
<path d="M8.063 0h4.045v2c-.74 0-1.424.394-1.766 1.07l-3.79 7.043A4.044 4.044 
0 0 0 6.069 12c0 .648.171 1.296.485 1.887l3.789 7.043A2.012 2.012 0 0 0 12.108
 22v2H8.063A4.075 4.075 0 0 1 4.5 21.887L.712 14.845A5.832 5.832 0 0 1 0 
 12.028c0-.958.228-1.944.712-2.817l3.79-7.042A3.966 3.966 0 0 1 8.061 0Zm19.486 
 9.155L23.76 2.113A4.075 4.075 0 0 0 20.2 0h-4.046v2c.74 0 1.424.394 1.766 1.07l3.789 
 7.043c.313.591.484 1.24.484 1.887 0 .648-.17 1.296-.484 1.887l-3.79 7.043A2.012 2.012 
 0 0 1 16.155 22v2h4.017a4.075 4.075 0 0 0 3.56-2.113l3.79-7.042c.484-.873.712-1.86.712-2.817
 .029-1.042-.228-2-.684-2.873ZM70.274 11.205v8.313H66.84V9.036h-5.607v10.482h-3.435V5.928h7.
 29c2.873 0 5.186 2.313 5.186 5.277Zm-18.504 8.24h3.435V5.856H51.77v13.59ZM53.453 0C52.33 0 
 51.42.94 51.42 2.096c0 1.157.911 2.097 2.033 2.097 1.121 0 2.032-.94 2.032-2.097C55.485.94 
 54.575 0 53.453 0Zm-3.785 12v1.446c-.14 3.325-2.804 6-6.098 6.072h-4.136V24H36V5.928h7.57c3
 .294 0 5.958 2.674 6.098 6.072Zm-3.365-.217c0-1.518-1.191-2.82-2.733-2.82h-4.066v7.374h4.066c1.
 472 0 2.733-1.229 2.733-2.819v-1.735Zm78.642-5.855h-7.289v13.59h3.434V9.036h5.608v10.482h3.434v-8.
 313c-.07-2.964-2.383-5.277-5.187-5.277Zm20.327 7.807h-9.673c.21 1.952 1.332 3.036 3.224 3.108 
 1.542 0 2.594-.578 3.084-1.807l3.014 1.157c-.981 2.385-3.294 3.759-6.098 3.759-3.995 0-6.588-2
 .82-6.588-7.23 0-4.336 2.663-7.228 6.588-7.228 3.505 0 6.028 2.241 6.519 5.855.07.434.07.868.07
  1.374-.07.289-.07.65-.14 1.012Zm-3.365-2.458c-.14-1.952-1.261-2.82-3.084-2.891-1.822.072-3.014
   1.012-3.224 2.891h6.308Zm-26.284 1.374c0 4.337-2.803 7.229-7.009 7.229-4.205 0-7.009-2.82-7.00
   9-7.23 0-4.337 2.804-7.228 7.009-7.228 4.206.072 7.009 2.891 7.009 7.229Zm-3.434 0c0-2.603-1.12
   2-3.832-3.505-3.904-2.383.072-3.504 1.373-3.504 3.904 0 2.602 1.121 3.83 3.504 3.903 2.313
   -.072 3.505-1.373 3.505-3.903Zm-26.705-1.374c.07.434.07.868.07 1.374 0 .361 0 .723-.07 1.01
   2h-9.672c.21 1.951 1.331 3.036 3.224 3.108 1.542 0 2.593-.578 3.084-1.807l3.014 1.156c-.982
    2.386-3.295 3.76-6.098 3.76-3.995 0-6.589-2.82-6.589-7.23 0-4.337 2.664-7.228 6.589-7.228 3
    .434.072 5.957 2.313 6.448 5.855Zm-3.364 0c-.14-1.952-1.262-2.82-3.084-2.891-1.823.072-3.01
    4 1.012-3.224 2.891h6.308Zm12.126-2.602c1.541.072 2.593.578 3.084 1.662l3.154-1.156c-1.122-
    2.314-3.365-3.687-6.238-3.687-4.206 0-7.01 2.82-7.01 7.229 0 4.337 2.804 7.229 7.01 7.22
    9 2.943 0 5.186-1.374 6.238-3.687l-3.225-1.229c-.56 1.012-1.542 1.518-3.013 1.518-2.384-.07
    2-3.505-1.301-3.505-3.903 0-2.603 1.121-3.904 3.505-3.976Z" fill="#fff"/>
    </svg>